<?xml version="1.0" encoding="UTF-8" standalone="no"?>
<svg
   xmlns:dc="http://purl.org/dc/elements/1.1/"
   xmlns:cc="http://creativecommons.org/ns#"
   xmlns:rdf="http://www.w3.org/1999/02/22-rdf-syntax-ns#"
   xmlns:svg="http://www.w3.org/2000/svg"
   xmlns="http://www.w3.org/2000/svg"
   xmlns:sodipodi="http://sodipodi.sourceforge.net/DTD/sodipodi-0.dtd"
   xmlns:inkscape="http://www.inkscape.org/namespaces/inkscape"
   width="50"
   height="50"
   viewBox="0 0 13.229166 13.229167"
   version="1.1"
   id="svg8"
   inkscape:version="1.0 (6e3e5246a0, 2020-05-07)"
   sodipodi:docname="fb.svg">
  <defs
     id="defs2" />
  <sodipodi:namedview
     id="base"
     pagecolor="#434343"
     bordercolor="#666666"
     borderopacity="1.0"
     inkscape:pageopacity="0.76862745"
     inkscape:pageshadow="2"
     inkscape:zoom="0.44950435"
     inkscape:cx="-279.52547"
     inkscape:cy="444.76477"
     inkscape:document-units="mm"
     inkscape:current-layer="layer1"
     inkscape:document-rotation="0"
     showgrid="false"
     units="px"
     inkscape:pagecheckerboard="false"
     borderlayer="true"
     inkscape:window-width="1366"
     inkscape:window-height="713"
     inkscape:window-x="0"
     inkscape:window-y="0"
     inkscape:window-maximized="1" />
  <metadata
     id="metadata5">
    <rdf:RDF>
      <cc:Work
         rdf:about="">
        <dc:format>image/svg+xml</dc:format>
        <dc:type
           rdf:resource="http://purl.org/dc/dcmitype/StillImage" />
        <dc:title />
      </cc:Work>
    </rdf:RDF>
  </metadata>
  <g
     inkscape:label="Layer 1"
     inkscape:groupmode="layer"
     id="layer1">
    <path
       style="fill:#dbe8d4;stroke-width:1;fill-opacity:1"
       d="M 5.3759176,13.201239 C 3.6051184,12.843142 2.1033445,11.840462 1.1109945,10.353703 -0.06161015,8.596884 -0.32446816,6.334441 0.41060984,4.3254258 0.62936741,3.7275482 1.0379778,3.006689 1.4593456,2.4752751 1.7165153,2.1509424 2.2041993,1.6668322 2.5326665,1.4098203 3.5559915,0.60910982 4.7434773,0.13861384 6.0474784,0.01720994 6.4267752,-0.01810199 7.1985689,0.00337344 7.560329,0.05930552 c 1.4153618,0.21883383 2.640173,0.82487384 3.64187,1.80200808 1.128129,1.1004656 1.802951,2.4713458 1.984164,4.0307688 0.142877,1.2295253 -0.07479,2.5327763 -0.610124,3.6529324 -0.886547,1.8550692 -2.6286911,3.2238232 -4.6222082,3.6315412 -0.1536707,0.03143 -0.2879737,0.05206 -0.2984513,0.04584 -0.010477,-0.0062 -0.019052,-1.051905 -0.019052,-2.323756 V 8.5861891 l 0.7429538,-3.913e-4 c 0.4086248,-2.043e-4 0.7582292,-0.01014 0.776899,-0.022052 0.03727,-0.023781 0.3222004,-1.8235869 0.298526,-1.8856912 -0.010989,-0.028828 -0.174648,-0.035088 -0.9172498,-0.035088 H 7.6337814 l 0.00772,-0.7734523 0.00772,-0.7734529 0.068074,-0.1462031 C 7.8545857,4.6550165 8.1154308,4.4566661 8.4498427,4.3928255 c 0.073385,-0.014011 0.3535298,-0.025472 0.622545,-0.025472 0.4225806,0 0.4912158,-0.0055 0.504536,-0.040446 0.00848,-0.022244 0.015417,-0.3781055 0.015417,-0.7908026 0,-0.6087343 -0.00671,-0.7571084 -0.035525,-0.7861205 C 9.4848213,2.6775125 8.4898972,2.5909508 7.9540333,2.610537 6.7024075,2.6562851 5.9439312,3.2765409 5.6646201,4.4827398 5.6320086,4.623563 5.6199229,4.8698339 5.6075361,5.6457862 l -0.015714,0.9843943 -0.8242276,0.00675 c -0.6205795,0.00508 -0.8291532,0.014559 -0.8441649,0.038353 -0.010968,0.01738 -0.020112,0.441527 -0.020327,0.9425493 -3.099e-4,0.7289605 0.00639,0.9166101 0.033528,0.9392839 0.022865,0.0191 0.2980818,0.030535 0.844554,0.035091 l 0.8106391,0.00675 v 2.3118353 c 0,1.520183 -0.0087,2.313886 -0.025398,2.317826 -0.013968,0.0033 -0.099696,-0.0091 -0.1905011,-0.02739 z"
       id="path847" />
  </g>
</svg>
