<?xml version="1.0" encoding="UTF-8" standalone="no"?>
<svg
   xmlns:dc="http://purl.org/dc/elements/1.1/"
   xmlns:cc="http://creativecommons.org/ns#"
   xmlns:rdf="http://www.w3.org/1999/02/22-rdf-syntax-ns#"
   xmlns:svg="http://www.w3.org/2000/svg"
   xmlns="http://www.w3.org/2000/svg"
   xmlns:sodipodi="http://sodipodi.sourceforge.net/DTD/sodipodi-0.dtd"
   xmlns:inkscape="http://www.inkscape.org/namespaces/inkscape"
   sodipodi:docname="github.svg"
   inkscape:version="1.0 (6e3e5246a0, 2020-05-07)"
   id="svg8"
   version="1.1"
   viewBox="0 0 13.229166 13.229167"
   height="50"
   width="50">
  <defs
     id="defs2" />
  <sodipodi:namedview
     inkscape:window-maximized="1"
     inkscape:window-y="0"
     inkscape:window-x="0"
     inkscape:window-height="713"
     inkscape:window-width="1366"
     borderlayer="true"
     inkscape:pagecheckerboard="false"
     units="px"
     showgrid="false"
     inkscape:document-rotation="0"
     inkscape:current-layer="layer1"
     inkscape:document-units="mm"
     inkscape:cy="42.314501"
     inkscape:cx="-2.4950268"
     inkscape:zoom="4.8463449"
     inkscape:pageshadow="2"
     inkscape:pageopacity="0.76862745"
     borderopacity="1.0"
     bordercolor="#666666"
     pagecolor="#434343"
     id="base" />
  <metadata
     id="metadata5">
    <rdf:RDF>
      <cc:Work
         rdf:about="">
        <dc:format>image/svg+xml</dc:format>
        <dc:type
           rdf:resource="http://purl.org/dc/dcmitype/StillImage" />
        <dc:title />
      </cc:Work>
    </rdf:RDF>
  </metadata>
  <g
     id="layer1"
     inkscape:groupmode="layer"
     inkscape:label="Layer 1">
    <path
       id="path860"
       d="M 4.2968631,13.13467 C 2.9973561,12.635075 1.8652202,11.708911 1.088906,10.510344 0.83841218,10.123602 0.46384064,9.3283995 0.32582107,8.8903424 -0.10965236,7.508195 -0.10858921,6.0559966 0.32891858,4.6810399 1.1467142,2.110873 3.3571686,0.29709147 5.9957925,0.03110579 7.9410578,-0.16498614 9.9210916,0.57421507 11.316767,2.0175731 c 1.36833,1.4150794 2.072781,3.4362339 1.881466,5.3981527 -0.0454,0.4656268 -0.166724,1.067764 -0.298781,1.4829378 -0.137697,0.4328581 -0.514315,1.2297984 -0.761662,1.6116804 -0.663121,1.023809 -1.53894,1.814185 -2.6007057,2.346994 -0.7536776,0.378204 -1.0313034,0.442856 -1.1913991,0.277445 -0.064278,-0.06642 -0.066576,-0.102868 -0.082612,-1.311064 C 8.2472353,10.629863 8.2437183,10.572657 8.1737943,10.369642 8.1337662,10.253411 8.0453635,10.07386 7.9773506,9.9706371 7.8949571,9.8455836 7.8670457,9.7789686 7.893718,9.7709973 7.9157303,9.7644149 8.0822859,9.734221 8.2638403,9.7038948 8.9035607,9.5970358 9.5177649,9.3303479 9.9042567,8.991626 10.334457,8.6145968 10.647155,8.0087744 10.762039,7.3297629 10.943605,6.2566129 10.785757,5.4104205 10.283161,4.7625856 L 10.161159,4.6053282 10.218509,4.391413 c 0.07861,-0.2931436 0.07682,-0.812255 -0.004,-1.1608167 -0.09559,-0.4123155 -0.111124,-0.4362696 -0.282906,-0.4362696 -0.320396,0 -0.8277834,0.1910013 -1.3329714,0.5017853 L 8.2647345,3.5015284 8.0206446,3.4433812 C 7.5249249,3.3252901 7.2739963,3.2996648 6.6133487,3.2996648 c -0.6606475,0 -0.9115759,0.025625 -1.4072969,0.1437164 L 4.9619621,3.5015284 4.6280506,3.2961115 C 4.1228635,2.9853275 3.6154752,2.7943261 3.2950788,2.7943261 c -0.1717803,0 -0.1873149,0.023954 -0.2829046,0.4362696 -0.080816,0.3485617 -0.082593,0.8676731 -0.004,1.1608168 L 3.0655342,4.6053277 2.9435327,4.762585 C 2.5395899,5.2832543 2.3528495,5.9460729 2.397,6.7024477 c 0.070593,1.2093621 0.4431421,1.9848807 1.1984862,2.4948211 0.3597527,0.2428725 0.8855082,0.4370701 1.41452,0.5224797 0.4074899,0.065791 0.3824224,0.042799 0.2500302,0.2293134 -0.1153749,0.1625431 -0.2638381,0.5375361 -0.2650859,0.6695641 -0.0016,0.171288 -0.7533839,0.29996 -1.1184471,0.191433 C 3.5387161,10.709641 3.2990356,10.508669 3.0640982,10.128855 2.9143302,9.8867323 2.7055319,9.6841913 2.4743044,9.5567377 2.0901956,9.3450154 1.6138812,9.4149217 1.7964728,9.6562196 c 0.021062,0.027836 0.1165289,0.1100433 0.2121446,0.1826825 0.2980353,0.2264159 0.4810916,0.4640209 0.6746643,0.8757079 0.2057429,0.437567 0.3734935,0.634911 0.6722942,0.790898 0.3117564,0.162752 0.5534992,0.206523 1.0256739,0.185714 0.2247816,-0.0099 0.4475987,-0.02773 0.4951483,-0.0396 l 0.086448,-0.02158 v 0.688681 c 0,0.410165 -0.013089,0.713978 -0.032374,0.751231 -0.042475,0.08208 -0.1935268,0.161164 -0.3040276,0.15918 -0.04841,-8.68e-4 -0.1967242,-0.04338 -0.3295918,-0.09446 z M 4.1935225,11.138377 c -0.083183,-0.0629 -0.040666,-0.151005 0.07286,-0.151005 0.050298,0 0.1103329,0.02353 0.1334113,0.05229 0.035651,0.04443 0.032963,0.05908 -0.017876,0.09753 -0.074941,0.05667 -0.1146844,0.05692 -0.188391,0.0011 z m 0.4863882,-0.05304 c -0.078396,-0.05169 0.0036,-0.146732 0.1265577,-0.146732 0.1195816,0 0.1503019,0.05041 0.076948,0.126275 -0.057113,0.05906 -0.1333225,0.06672 -0.2035048,0.02046 z m -1.0371226,-0.04878 c -0.055385,-0.06902 -0.015647,-0.146719 0.075029,-0.146719 0.093774,0 0.1800807,0.08161 0.1557234,0.147246 -0.023061,0.06214 -0.1807442,0.06179 -0.2307524,-5.27e-4 z m -0.4341765,-0.25076 c -0.020753,-0.02146 -0.03773,-0.07266 -0.03773,-0.113792 0,-0.05636 0.017816,-0.07478 0.072312,-0.07478 0.092136,0 0.1477577,0.05753 0.1477577,0.152808 0,0.05636 -0.017816,0.07478 -0.072312,0.07478 -0.039767,0 -0.089287,-0.01756 -0.1100332,-0.03902 z M 2.8818343,10.352504 c -0.027628,-0.0627 -0.027257,-0.0914 0.0015,-0.12119 0.054656,-0.05652 0.143645,0.01035 0.1559881,0.117223 0.00799,0.06895 -0.0031,0.08612 -0.055684,0.08612 -0.039697,0 -0.079944,-0.03247 -0.1018367,-0.08216 z M 2.619716,9.9762245 C 2.587742,9.8720508 2.653019,9.8254696 2.730011,9.8975216 2.8163,9.9782861 2.810516,10.044521 2.717152,10.044521 c -0.050089,0 -0.083713,-0.02357 -0.097441,-0.068297 z M 2.3360849,9.7165679 c -0.011621,-0.01944 -0.005,-0.052029 0.014728,-0.072423 0.039488,-0.040836 0.1305606,5.657e-4 0.1527628,0.069449 0.015707,0.048728 -0.1385113,0.051466 -0.1674919,0.00298 z"
       style="fill:#dbe8d4;fill-opacity:1;stroke-width:1" />
  </g>
</svg>
