<?xml version="1.0" encoding="UTF-8" standalone="no"?>
<svg
   xmlns:dc="http://purl.org/dc/elements/1.1/"
   xmlns:cc="http://creativecommons.org/ns#"
   xmlns:rdf="http://www.w3.org/1999/02/22-rdf-syntax-ns#"
   xmlns:svg="http://www.w3.org/2000/svg"
   xmlns="http://www.w3.org/2000/svg"
   xmlns:sodipodi="http://sodipodi.sourceforge.net/DTD/sodipodi-0.dtd"
   xmlns:inkscape="http://www.inkscape.org/namespaces/inkscape"
   sodipodi:docname="insta.svg"
   inkscape:version="1.0 (6e3e5246a0, 2020-05-07)"
   id="svg8"
   version="1.1"
   viewBox="0 0 13.229166 13.229167"
   height="50"
   width="50">
  <defs
     id="defs2" />
  <sodipodi:namedview
     inkscape:window-maximized="1"
     inkscape:window-y="0"
     inkscape:window-x="0"
     inkscape:window-height="713"
     inkscape:window-width="1366"
     borderlayer="true"
     inkscape:pagecheckerboard="false"
     units="px"
     showgrid="false"
     inkscape:document-rotation="0"
     inkscape:current-layer="layer1"
     inkscape:document-units="mm"
     inkscape:cy="50.169909"
     inkscape:cx="-213.75776"
     inkscape:zoom="1.2115862"
     inkscape:pageshadow="2"
     inkscape:pageopacity="0.76862745"
     borderopacity="1.0"
     bordercolor="#666666"
     pagecolor="#434343"
     id="base" />
  <metadata
     id="metadata5">
    <rdf:RDF>
      <cc:Work
         rdf:about="">
        <dc:format>image/svg+xml</dc:format>
        <dc:type
           rdf:resource="http://purl.org/dc/dcmitype/StillImage" />
        <dc:title />
      </cc:Work>
    </rdf:RDF>
  </metadata>
  <g
     id="layer1"
     inkscape:groupmode="layer"
     inkscape:label="Layer 1">
    <path
       id="path845"
       d="M 6.2782788,13.221433 C 5.5768389,13.187785 4.843118,13.028021 4.1687784,12.762105 3.8923245,12.653088 3.4071628,12.410897 3.1630083,12.260027 2.3449198,11.754506 1.6680589,11.108301 1.1268981,10.316136 0.71339293,9.7108377 0.37803086,8.961864 0.1960859,8.2373278 0.05156299,7.6618136 -9.2971151e-4,7.2240269 1.2432269e-5,6.602088 9.7318572e-4,5.9794558 0.05467344,5.5449799 0.20242209,4.9649744 0.38298356,4.2561572 0.71976214,3.5084499 1.1268981,2.9124739 1.667773,2.1207282 2.3453528,1.4738372 3.1630083,0.96858358 3.4071628,0.81771311 3.8923245,0.57552216 4.1687784,0.46650589 5.4604259,-0.04283657 6.8631192,-0.13743131 8.2063971,0.19421808 8.7012795,0.31640268 9.109662,0.46775788 9.5801064,0.70334576 10.25816,1.0429 10.817241,1.450464 11.347571,1.9918091 c 0.819935,0.836966 1.398414,1.8659703 1.68517,2.9975996 0.142776,0.5634376 0.195466,0.9960826 0.1964,1.6126793 6.01e-4,0.4100781 -0.0093,0.5736352 -0.05497,0.9101863 -0.151157,1.1128568 -0.58586,2.1675145 -1.268885,3.0785137 -0.488066,0.650968 -1.12116,1.225578 -1.83914,1.669239 -0.2441543,0.15087 -0.7293163,0.393061 -1.0057714,0.502078 -0.8836384,0.34845 -1.8314428,0.504934 -2.7820958,0.459328 z M 8.393894,10.580224 c 0.5738049,-0.05748 0.9498286,-0.181232 1.2957499,-0.426449 0.1473998,-0.104489 0.3620791,-0.3187166 0.4683361,-0.4673501 0.158289,-0.2214196 0.299045,-0.549337 0.361621,-0.8424689 0.07539,-0.3531322 0.08768,-0.6668135 0.08764,-2.2357593 0,-1.6019075 -0.01222,-1.8978192 -0.09292,-2.2583404 C 10.446042,4.0448345 10.305485,3.7246257 10.14604,3.5108633 10.042334,3.37183 9.8481447,3.1766061 9.7176482,3.0801877 9.4620967,2.8913749 9.1519167,2.7600365 8.7913365,2.6879649 8.4394068,2.6176216 7.7275966,2.5945459 6.2354778,2.6051071 5.1945986,2.6124738 4.8852117,2.6222762 4.6223051,2.6562064 3.9849096,2.7384726 3.5020741,2.987053 3.1431561,3.4177232 2.8793511,3.734266 2.7168807,4.1324933 2.6531604,4.618742 c -0.04079,0.3112457 -0.048878,0.6405861 -0.048878,1.9894535 0,1.524698 0.010046,1.8023008 0.078928,2.1807818 0.022584,0.1240899 0.085177,0.3331384 0.1421649,0.4748017 0.1044888,0.2597415 0.2452383,0.4707624 0.4496554,0.6741509 0.1665452,0.1657071 0.3105985,0.2701901 0.512741,0.3718941 0.3505826,0.17639 0.6904944,0.253883 1.2309221,0.280625 0.3125963,0.01547 3.2062177,0.0067 3.3752014,-0.01023 z M 5.2571588,9.8819732 C 4.6730564,9.8615588 4.4178718,9.8179906 4.1550504,9.6938126 4.0020158,9.621507 3.9059865,9.553769 3.7824317,9.4309731 3.6275813,9.2770738 3.53469,9.127285 3.4561253,8.9047958 3.3403212,8.5768502 3.3190783,8.2219626 3.318948,6.613048 3.3188189,5.0284686 3.3378509,4.682303 3.4434914,4.3480026 3.5211247,4.1023256 3.6282448,3.9285534 3.8075603,3.7574005 3.9671728,3.6050537 4.1135662,3.5207592 4.3486674,3.4458279 4.6792479,3.340465 5.0199019,3.3217626 6.6084618,3.3217626 c 1.0194047,0 1.5577523,0.011044 1.8160047,0.037259 0.8304822,0.084303 1.300986,0.5166989 1.4182343,1.3033624 0.035182,0.2360324 0.045011,0.5489824 0.051641,1.6432751 0.00654,1.0796302 -0.00552,1.8211154 -0.034287,2.1045817 C 9.8100711,8.9031923 9.6496591,9.2536119 9.3612396,9.4999103 9.0906036,9.7310224 8.7703128,9.8360812 8.2288025,9.8713617 7.9824587,9.8874089 5.6509696,9.8957355 5.2571582,9.8819738 Z M 6.8799306,8.6424567 C 7.210035,8.5988862 7.5219582,8.4760813 7.8010043,8.2798256 7.9374521,8.1838596 8.1809359,7.9423242 8.2753452,7.8092796 8.6642051,7.2612859 8.7648569,6.5979913 8.5567884,5.9545727 8.3929639,5.447973 7.9852539,4.9889906 7.488949,4.7524459 7.3380064,4.6805051 7.1803866,4.6272468 7.0079141,4.5899098 6.9007628,4.5667118 6.8456533,4.5629685 6.6084618,4.5627525 6.3675565,4.5625353 6.3173276,4.5659319 6.2049053,4.5902638 5.3825981,4.7680282 4.7631597,5.3853131 4.5906362,6.1989207 4.5567215,6.3588519 4.5448441,6.6701421 4.5657886,6.8499354 4.62096,7.3234861 4.8368317,7.7524221 5.1902752,8.0907813 5.6423595,8.5235709 6.2579252,8.724555 6.8799312,8.6424591 Z M 6.3361878,7.9155857 C 5.87769,7.8190214 5.5032438,7.4927765 5.344814,7.0518295 5.2485048,6.7837781 5.2485132,6.4324785 5.3448386,6.1645633 5.5075678,5.7119366 5.892377,5.3819489 6.360071,5.2939656 c 0.3367317,-0.063346 0.7019865,0.010318 0.9858989,0.1988376 0.3745507,0.2487053 0.5954525,0.6615697 0.5954525,1.1129088 0,0.3691729 -0.1303457,0.6844817 -0.3903269,0.9442143 C 7.3536433,7.7471891 7.1222026,7.8698159 6.8499803,7.9214065 6.7151346,7.946962 6.4720897,7.9442085 6.3361878,7.9155875 Z M 8.9086629,4.9224489 C 9.2462365,4.7970218 9.3298096,4.367498 9.0644038,4.1220148 8.9661989,4.0311821 8.8846025,4.0005573 8.7424203,4.001168 8.5912729,4.0018279 8.5144929,4.0324586 8.4133133,4.1325023 8.3715925,4.1737512 8.3248097,4.2348038 8.3093463,4.2681701 8.1298231,4.6555242 8.510005,5.0705718 8.9086629,4.9224489 Z"
       style="fill:#dbe8d4;fill-opacity:1;stroke-width:1" />
  </g>
</svg>
