<?xml version="1.0" encoding="UTF-8" standalone="no"?>
<svg
   xmlns:dc="http://purl.org/dc/elements/1.1/"
   xmlns:cc="http://creativecommons.org/ns#"
   xmlns:rdf="http://www.w3.org/1999/02/22-rdf-syntax-ns#"
   xmlns:svg="http://www.w3.org/2000/svg"
   xmlns="http://www.w3.org/2000/svg"
   xmlns:sodipodi="http://sodipodi.sourceforge.net/DTD/sodipodi-0.dtd"
   xmlns:inkscape="http://www.inkscape.org/namespaces/inkscape"
   sodipodi:docname="link.svg"
   inkscape:version="1.0 (6e3e5246a0, 2020-05-07)"
   id="svg8"
   version="1.1"
   viewBox="0 0 13.229166 13.229167"
   height="50"
   width="50">
  <defs
     id="defs2" />
  <sodipodi:namedview
     inkscape:window-maximized="1"
     inkscape:window-y="0"
     inkscape:window-x="0"
     inkscape:window-height="713"
     inkscape:window-width="1366"
     borderlayer="true"
     inkscape:pagecheckerboard="false"
     units="px"
     showgrid="false"
     inkscape:document-rotation="0"
     inkscape:current-layer="layer1"
     inkscape:document-units="mm"
     inkscape:cy="8.0494346"
     inkscape:cx="44.806981"
     inkscape:zoom="5.0855612"
     inkscape:pageshadow="2"
     inkscape:pageopacity="0.76862745"
     borderopacity="1.0"
     bordercolor="#666666"
     pagecolor="#434343"
     id="base" />
  <metadata
     id="metadata5">
    <rdf:RDF>
      <cc:Work
         rdf:about="">
        <dc:format>image/svg+xml</dc:format>
        <dc:type
           rdf:resource="http://purl.org/dc/dcmitype/StillImage" />
        <dc:title />
      </cc:Work>
    </rdf:RDF>
  </metadata>
  <g
     id="layer1"
     inkscape:groupmode="layer"
     inkscape:label="Layer 1">
    <path
       id="path855"
       d="M 6.2216457,13.214726 C 6.1675943,13.209343 5.9618673,13.185312 5.7644795,13.161341 3.9965203,12.946627 2.3476973,11.972638 1.2713403,10.507165 -0.15523404,8.5648662 -0.40098279,5.9718959 0.63421029,3.7845936 1.3993088,2.1679848 2.8203281,0.90617067 4.509433,0.34353513 5.5433064,-8.4475096e-4 6.6436271,-0.088068 7.7098757,0.08983369 9.8000038,0.43856793 11.622155,1.7995791 12.552147,3.7066496 c 0.582794,1.1950953 0.790264,2.4558725 0.618774,3.7602326 -0.351034,2.6699788 -2.302782,4.8752158 -4.9063256,5.5435518 -0.6520593,0.167385 -1.531297,0.255308 -2.0429497,0.204292 z M 4.6612096,10.158775 c 0.039465,-0.03944 0.044128,-0.3120159 0.044128,-2.579647 0,-2.2676313 -0.00463,-2.5402109 -0.044128,-2.5796479 -0.038119,-0.038094 -0.156856,-0.044097 -0.872321,-0.044097 -0.5171967,0 -0.8485903,0.010908 -0.8825083,0.029049 -0.053092,0.028395 -0.054312,0.086831 -0.054312,2.5942886 0,2.4134816 0.00295,2.5669313 0.049145,2.5938423 0.030283,0.01763 0.3688887,0.02892 0.8825083,0.02946 0.7209307,7.39e-4 0.8393228,-0.0051 0.8774946,-0.04324 z m 2.5450757,0.01505 c 0.052579,-0.02812 0.054346,-0.07442 0.055289,-1.4521791 0.00118,-1.7056346 0.016354,-1.8392601 0.2445553,-2.1527285 0.2668382,-0.3665416 1.0221641,-0.4117971 1.3308657,-0.079739 0.099943,0.1075045 0.1834819,0.2801684 0.2384103,0.4927616 0.038304,0.1482421 0.047663,0.4149622 0.058874,1.6775544 0.00965,1.0872057 0.022228,1.5069726 0.045601,1.5219026 0.017751,0.01134 0.3504235,0.02081 0.7392789,0.02104 0.6056835,3.67e-4 0.7133335,-0.0059 0.7511355,-0.04367 0.03891,-0.03888 0.04409,-0.2054727 0.04387,-1.4100862 C 10.713873,7.1328459 10.68749,6.5930258 10.590037,6.2091166 10.393091,5.4332409 9.9409575,5.0704464 9.0614606,4.982579 8.339791,4.9104791 7.6400053,5.1172967 7.3389696,5.4916503 c -0.048269,0.060027 -0.098287,0.1091404 -0.1111454,0.1091404 -0.012861,0 -0.023381,-0.1321461 -0.023381,-0.2936579 0,-0.2616112 -0.00589,-0.2968277 -0.054312,-0.3227066 -0.05815,-0.031099 -1.2834568,-0.041914 -1.3614206,-0.012015 -0.040063,0.015362 -0.044414,0.2712082 -0.044414,2.6073754 0,2.0460168 0.00741,2.5933154 0.035097,2.6044954 0.07022,0.02831 1.3722452,0.01877 1.4268975,-0.01046 z M 3.9844298,4.1583787 C 4.5641417,4.0220713 4.8535331,3.4026118 4.5908417,2.8603185 4.327206,2.3160765 3.570057,2.1959812 3.1361686,2.6295856 2.6393687,3.1260598 2.8711888,3.971102 3.5540621,4.1529128 3.7493542,4.2049077 3.7846357,4.205356 3.9844298,4.15838 Z"
       style="fill:#dbe8d4;fill-opacity:1;stroke-width:1" />
  </g>
</svg>
