<?xml version="1.0" encoding="UTF-8" standalone="no"?>
<svg
   xmlns:dc="http://purl.org/dc/elements/1.1/"
   xmlns:cc="http://creativecommons.org/ns#"
   xmlns:rdf="http://www.w3.org/1999/02/22-rdf-syntax-ns#"
   xmlns:svg="http://www.w3.org/2000/svg"
   xmlns="http://www.w3.org/2000/svg"
   xmlns:sodipodi="http://sodipodi.sourceforge.net/DTD/sodipodi-0.dtd"
   xmlns:inkscape="http://www.inkscape.org/namespaces/inkscape"
   sodipodi:docname="youtube.svg"
   inkscape:version="1.0 (6e3e5246a0, 2020-05-07)"
   id="svg8"
   version="1.1"
   viewBox="0 0 13.229166 13.229167"
   height="50"
   width="50">
  <defs
     id="defs2" />
  <sodipodi:namedview
     inkscape:window-maximized="1"
     inkscape:window-y="0"
     inkscape:window-x="0"
     inkscape:window-height="713"
     inkscape:window-width="1366"
     borderlayer="true"
     inkscape:pagecheckerboard="false"
     units="px"
     showgrid="false"
     inkscape:document-rotation="0"
     inkscape:current-layer="layer1"
     inkscape:document-units="mm"
     inkscape:cy="-24.723592"
     inkscape:cx="121.12649"
     inkscape:zoom="2.5427806"
     inkscape:pageshadow="2"
     inkscape:pageopacity="0.76862745"
     borderopacity="1.0"
     bordercolor="#666666"
     pagecolor="#434343"
     id="base" />
  <metadata
     id="metadata5">
    <rdf:RDF>
      <cc:Work
         rdf:about="">
        <dc:format>image/svg+xml</dc:format>
        <dc:type
           rdf:resource="http://purl.org/dc/dcmitype/StillImage" />
        <dc:title></dc:title>
      </cc:Work>
    </rdf:RDF>
  </metadata>
  <g
     id="layer1"
     inkscape:groupmode="layer"
     inkscape:label="Layer 1">
    <path
       id="path907"
       d="M 6.0988883,13.218972 C 4.5091468,13.075904 3.1196326,12.445651 2.011234,11.364905 1.1641303,10.538934 0.57798887,9.5625299 0.25726292,8.4431122 -0.33668608,6.3700739 0.11080089,4.1528473 1.4652183,2.457885 1.6942044,2.1713245 2.1785718,1.6863655 2.4608435,1.4610447 3.4693131,0.65603857 4.6104274,0.1806547 5.8952454,0.0302842 c 0.3450159,-0.04037893 1.0936225,-0.04037893 1.4386383,0 1.2879597,0.15073853 2.4246441,0.62431463 3.4344033,1.4308751 0.284179,0.2269919 0.768868,0.712065 0.995936,0.9967257 1.14242,1.4321711 1.647387,3.2399393 1.405868,5.0329628 -0.26953,2.0009613 -1.423595,3.7598032 -3.15098,4.8022212 -0.7951643,0.479854 -1.6952522,0.786073 -2.6521551,0.902286 -0.2515683,0.03055 -1.0299227,0.04505 -1.2680676,0.02362 z M 7.8382346,9.7093593 C 8.9681523,9.6829247 9.7137469,9.644486 9.9548534,9.600242 10.215691,9.5523776 10.444464,9.425716 10.613947,9.2353328 10.753114,9.0790079 10.863145,8.818993 10.928313,8.4924737 c 0.155425,-0.7787805 0.155425,-3.0456092 0,-3.8243896 C 10.834247,4.1967544 10.675456,3.9214586 10.389119,3.7332564 10.175701,3.5929824 9.9985716,3.5485301 9.533183,3.5184515 7.9964039,3.4191281 5.1302196,3.4192765 3.6298022,3.5187578 3.0705936,3.5558355 2.8503455,3.6334987 2.5951898,3.8835864 2.3607742,4.1133453 2.2345966,4.4935972 2.1755551,5.1482022 c -0.097614,1.0822993 -0.05942,2.8306523 0.074338,3.4022167 0.1142983,0.4884163 0.2817323,0.7467293 0.5871096,0.9057581 0.3094808,0.1611659 0.6351881,0.2005214 1.9585901,0.2366578 1.2337907,0.033689 2.1063969,0.038429 3.0426385,0.016524 z M 5.6664959,7.7115916 c -0.00599,-0.00606 -0.011038,-0.5576123 -0.011038,-1.2256484 0,-1.0405277 0.00347,-1.2159197 0.023749,-1.2237379 0.018373,-0.00706 2.3219665,1.1777037 2.3558617,1.2116392 0.00426,0.00434 -0.00284,0.018106 -0.015944,0.030596 -0.020595,0.019635 -2.3182477,1.2181886 -2.3352916,1.2181886 -0.00347,0 -0.011353,-0.00497 -0.017362,-0.011036 z"
       style="fill:#dbe8d4;fill-opacity:1;stroke-width:0.999998" />
  </g>
</svg>
